HIERARCHY
ROOT hip
{
  OFFSET -0.380877 103.83 -0.41898
  CHANNELS 6 Xposition Yposition Zposition Zrotation Xrotation Yrotation
  JOINT abdomen
  {
    OFFSET 0 -1.186 -1.50178
    CHANNELS 6 Xposition Yposition Zposition Zrotation Xrotation Yrotation
    JOINT abdomen2
    {
      OFFSET 0 9.964 0.21338
      CHANNELS 6 Xposition Yposition Zposition Zrotation Xrotation Yrotation
      JOINT chest
      {
        OFFSET 0 13.134 -3.25729
        CHANNELS 6 Xposition Yposition Zposition Zrotation Xrotation Yrotation
        JOINT neck
        {
          OFFSET 0 21.686 -1.69049
          CHANNELS 6 Xposition Yposition Zposition Zrotation Xrotation Yrotation
          JOINT head
          {
            OFFSET 0 11.838 -0.12368
            CHANNELS 6 Xposition Yposition Zposition Zrotation Xrotation Yrotation
            End Site
            {
              OFFSET 0 6.717 2.38717
            }
          }
        }
        JOINT lCollar
        {
          OFFSET 1.70688 20.075 5.0056
          CHANNELS 6 Xposition Yposition Zposition Zrotation Xrotation Yrotation
          JOINT lShldr
          {
            OFFSET 13.6458 -0.047012 -4.84902
            CHANNELS 6 Xposition Yposition Zposition Zrotation Xrotation Yrotation
            JOINT lForeArm
            {
              OFFSET 28.3255 -0.975903 2.28883
              CHANNELS 6 Xposition Yposition Zposition Zrotation Xrotation Yrotation
              JOINT lHand
              {
                OFFSET 22.1583 -0.530035 10.8316
                CHANNELS 6 Xposition Yposition Zposition Zrotation Xrotation Yrotation
                JOINT lThumb1
                {
                  OFFSET 0.785995 0.111999 2.58168
                  CHANNELS 6 Xposition Yposition Zposition Zrotation Xrotation Yrotation
                  JOINT lThumb2
                  {
                    OFFSET 0.3601 -0.878005 4.2331
                    CHANNELS 6 Xposition Yposition Zposition Zrotation Xrotation Yrotation
                    End Site
                    {
                      OFFSET 1.81271 -1.21601 2.2227
                    }
                  }
                }
                JOINT lCarpal1
                {
                  OFFSET 0.9571 1.114 1.76948
                  CHANNELS 6 Xposition Yposition Zposition Zrotation Xrotation Yrotation
                  JOINT lIndex1
                  {
                    OFFSET 4.1246 0.487 4.1451
                    CHANNELS 6 Xposition Yposition Zposition Zrotation Xrotation Yrotation
                    JOINT lIndex2
                    {
                      OFFSET 3.40521 -1.45401 2.7682
                      CHANNELS 6 Xposition Yposition Zposition Zrotation Xrotation Yrotation
                      End Site
                      {
                        OFFSET 1.4531 -1.795 1.2713
                      }
                    }
                  }
                  JOINT lMid1
                  {
                    OFFSET 5.6954 0.209991 2.1184
                    CHANNELS 6 Xposition Yposition Zposition Zrotation Xrotation Yrotation
                    JOINT lMid2
                    {
                      OFFSET 3.9766 -1.53999 2.3863
                      CHANNELS 6 Xposition Yposition Zposition Zrotation Xrotation Yrotation
                      End Site
                      {
                        OFFSET 1.4042 -1.926 1.125
                      }
                    }
                  }
                }
                JOINT lCarpal2
                {
                  OFFSET 2.09559 0.65999 -0.38939
                  CHANNELS 6 Xposition Yposition Zposition Zrotation Xrotation Yrotation
                  JOINT lRing1
                  {
                    OFFSET 5.0395 -0.089997 2.49707
                    CHANNELS 6 Xposition Yposition Zposition Zrotation Xrotation Yrotation
                    JOINT lRing2
                    {
                      OFFSET 3.7921 -1.552 1.4806
                      CHANNELS 6 Xposition Yposition Zposition Zrotation Xrotation Yrotation
                      End Site
                      {
                        OFFSET 1.4655 -1.808 0.9609
                      }
                    }
                  }
                  JOINT lPinky1
                  {
                    OFFSET 4.9141 -1.269 0.35915
                    CHANNELS 6 Xposition Yposition Zposition Zrotation Xrotation Yrotation
                    JOINT lPinky2
                    {
                      OFFSET 3.1477 -1.685 0.84623
                      CHANNELS 6 Xposition Yposition Zposition Zrotation Xrotation Yrotation
                      End Site
                      {
                        OFFSET 0.805505 -1.58499 0.79549
                      }
                    }
                  }
                }
              }
            }
          }
        }
        JOINT rCollar
        {
          OFFSET -1.70688 20.075 5.0056
          CHANNELS 6 Xposition Yposition Zposition Zrotation Xrotation Yrotation
          JOINT rShldr
          {
            OFFSET -13.6458 -0.047012 -4.84902
            CHANNELS 6 Xposition Yposition Zposition Zrotation Xrotation Yrotation
            JOINT rForeArm
            {
              OFFSET -28.3255 -0.975903 2.28883
              CHANNELS 6 Xposition Yposition Zposition Zrotation Xrotation Yrotation
              JOINT rHand
              {
                OFFSET -22.1583 -0.530036 10.8316
                CHANNELS 6 Xposition Yposition Zposition Zrotation Xrotation Yrotation
                JOINT rThumb1
                {
                  OFFSET -0.785995 0.111999 2.58168
                  CHANNELS 6 Xposition Yposition Zposition Zrotation Xrotation Yrotation
                  JOINT rThumb2
                  {
                    OFFSET -0.3601 -0.878005 4.2331
                    CHANNELS 6 Xposition Yposition Zposition Zrotation Xrotation Yrotation
                    End Site
                    {
                      OFFSET -1.81271 -1.21601 2.2227
                    }
                  }
                }
                JOINT rCarpal1
                {
                  OFFSET -0.9571 1.114 1.76948
                  CHANNELS 6 Xposition Yposition Zposition Zrotation Xrotation Yrotation
                  JOINT rIndex1
                  {
                    OFFSET -4.1246 0.487 4.1451
                    CHANNELS 6 Xposition Yposition Zposition Zrotation Xrotation Yrotation
                    JOINT rIndex2
                    {
                      OFFSET -3.40521 -1.45401 2.7682
                      CHANNELS 6 Xposition Yposition Zposition Zrotation Xrotation Yrotation
                      End Site
                      {
                        OFFSET -1.4531 -1.795 1.2713
                      }
                    }
                  }
                  JOINT rMid1
                  {
                    OFFSET -5.6954 0.209991 2.1184
                    CHANNELS 6 Xposition Yposition Zposition Zrotation Xrotation Yrotation
                    JOINT rMid2
                    {
                      OFFSET -3.9766 -1.53999 2.3863
                      CHANNELS 6 Xposition Yposition Zposition Zrotation Xrotation Yrotation
                      End Site
                      {
                        OFFSET -1.4042 -1.926 1.125
                      }
                    }
                  }
                }
                JOINT rCarpal2
                {
                  OFFSET -2.09559 0.65999 -0.38939
                  CHANNELS 6 Xposition Yposition Zposition Zrotation Xrotation Yrotation
                  JOINT rRing1
                  {
                    OFFSET -5.0395 -0.089997 2.49707
                    CHANNELS 6 Xposition Yposition Zposition Zrotation Xrotation Yrotation
                    JOINT rRing2
                    {
                      OFFSET -3.7921 -1.552 1.4806
                      CHANNELS 6 Xposition Yposition Zposition Zrotation Xrotation Yrotation
                      End Site
                      {
                        OFFSET -1.4655 -1.808 0.9609
                      }
                    }
                  }
                  JOINT rPinky1
                  {
                    OFFSET -4.9141 -1.269 0.35915
                    CHANNELS 6 Xposition Yposition Zposition Zrotation Xrotation Yrotation
                    JOINT rPinky2
                    {
                      OFFSET -3.1477 -1.685 0.84623
                      CHANNELS 6 Xposition Yposition Zposition Zrotation Xrotation Yrotation
                      End Site
                      {
                        OFFSET -0.805505 -1.58499 0.79549
                      }
                    }
                  }
                }
              }
            }
          }
        }
      }
    }
  }
  JOINT lThigh
  {
    OFFSET 8.367 -8.2066 0.59823
    CHANNELS 6 Xposition Yposition Zposition Zrotation Xrotation Yrotation
    JOINT lShin
    {
      OFFSET 2.19232 -43.463 -0.493181
      CHANNELS 6 Xposition Yposition Zposition Zrotation Xrotation Yrotation
      JOINT lFoot
      {
        OFFSET 0.733257 -45.8593 -2.64513
        CHANNELS 6 Xposition Yposition Zposition Zrotation Xrotation Yrotation
        End Site
        {
          OFFSET 2.6618 -4.26993 12.3931
        }
      }
    }
  }
  JOINT rThigh
  {
    OFFSET -8.367 -8.2066 0.59823
    CHANNELS 6 Xposition Yposition Zposition Zrotation Xrotation Yrotation
    JOINT rShin
    {
      OFFSET -2.19233 -43.463 -0.493108
      CHANNELS 6 Xposition Yposition Zposition Zrotation Xrotation Yrotation
      JOINT rFoot
      {
        OFFSET -0.733256 -45.8593 -2.64514
        CHANNELS 6 Xposition Yposition Zposition Zrotation Xrotation Yrotation
        End Site
        {
          OFFSET -2.6618 -4.26993 12.3931
        }
      }
    }
  }
}
MOTION
Frames:	5
Frame Time:	0.0333333
0.0716027 39.3027 -5.1817 3.01082 -18.1289 7.21778 0 -1.186 -1.50178 3.24459 12.7862 -0.833518 0 9.964 0.21338 6.95654 25.4984 -2.56178 -1.77636e-015 13.134 -3.25729 6.9569 25.4968 -2.59775 0 21.686 -1.69049 -21.6025 -30.8383 -4.56892 0 11.838 -0.12368 3.40367 -10.622 -7.21563 1.70688 20.075 5.0056 7.39489 -16.4095 -5.1872 13.6458 -0.047012 -4.84902 -59.0608 29.7901 -46.621 28.3255 -0.975903 2.28883 -3.05247 -16.4137 -34.1541 22.1583 -0.530035 10.8316 -7.95663 7.72108 20.593 0.785995 0.111999 2.58168 1.59028e-015 -6.36111e-015 -0 0.3601 -0.878005 4.2331 2.64834e-031 9.54166e-015 -1.59028e-015 0.9571 1.114 1.76948 1.59028e-015 -6.36111e-015 -0 4.1246 0.487 4.1451 2.64834e-031 9.54166e-015 -1.59028e-015 3.40521 -1.45401 2.7682 0 0 -3.18055e-015 5.6954 0.209991 2.1184 2.64834e-031 9.54166e-015 -1.59028e-015 3.9766 -1.53999 2.3863 0 0 -3.18055e-015 2.09559 0.65999 -0.38939 1.59028e-015 -6.36111e-015 -0 5.0395 -0.089997 2.49707 2.64834e-031 9.54166e-015 -1.59028e-015 3.7921 -1.552 1.4806 0 0 -3.18055e-015 4.9141 -1.269 0.35915 2.64834e-031 9.54166e-015 -1.59028e-015 3.1477 -1.685 0.84623 0 0 -3.18055e-015 -1.70688 20.075 5.0056 -31.0799 -12.065 2.3523 -13.6458 -0.047012 -4.84902 73.9429 16.3067 37.6384 -28.3255 -0.975903 2.28883 -31.1902 -4.93802 39.9102 -22.1583 -0.530036 10.8316 3.70743 3.59575 -22.6346 -0.785995 0.111999 2.58168 -6.36111e-015 3.18055e-015 3.18055e-015 -0.3601 -0.878004 4.2331 -5.29669e-031 -9.54166e-015 -3.18055e-015 -0.9571 1.114 1.76948 -6.36111e-015 3.18055e-015 3.18055e-015 -4.1246 0.487 4.1451 -5.29669e-031 -9.54166e-015 -3.18055e-015 -3.40521 -1.45401 2.7682 -9.54166e-015 3.18055e-015 -3.18055e-015 -5.6954 0.209991 2.1184 -5.29669e-031 -9.54166e-015 -3.18055e-015 -3.9766 -1.53999 2.3863 -9.54166e-015 3.18055e-015 -3.18055e-015 -2.09559 0.65999 -0.38939 -6.36111e-015 3.18055e-015 3.18055e-015 -5.0395 -0.0899969 2.49707 -5.29669e-031 -9.54166e-015 -3.18055e-015 -3.7921 -1.552 1.4806 -9.54166e-015 3.18055e-015 -3.18055e-015 -4.9141 -1.269 0.35915 -5.29669e-031 -9.54166e-015 -3.18055e-015 -3.1477 -1.685 0.84623 -9.54166e-015 3.18055e-015 -3.18055e-015 8.367 -8.2066 0.59823 56.2308 -78.9991 33.1295 2.19232 -43.463 -0.493181 -168.649 28.5199 140.911 0.733257 -45.8593 -2.64513 -2.93641 -0.0336028 -1.6919 -8.367 -8.2066 0.59823 -70.4046 -55.7377 -47.9952 -2.19233 -43.463 -0.493108 168.849 25.1361 -132.062 -0.733256 -45.8593 -2.64514 -2.69058 -9.53435 2.63228 
0.0120007 39.2895 -5.23037 3.02285 -18.1249 7.15137 -2.22045e-016 -1.186 -1.50178 3.22569 12.8153 -0.836489 0 9.964 0.21338 6.91743 25.5569 -2.55867 0 13.134 -3.25729 6.91782 25.5554 -2.59473 0 21.686 -1.69049 -21.1776 -30.5084 -4.42749 0 11.838 -0.12368 3.10893 -10.9498 -7.07801 1.70688 20.075 5.0056 7.95255 -16.4086 -4.86131 13.6458 -0.047012 -4.84902 -59.3118 29.8429 -46.7456 28.3255 -0.975903 2.28883 -3.30985 -16.464 -34.5689 22.1583 -0.530035 10.8316 -8.07227 7.83263 21.4089 0.785995 0.111999 2.58168 0 3.18055e-015 -0 0.3601 -0.878005 4.2331 -1.59028e-015 0 -1.59028e-015 0.9571 1.114 1.76948 0 3.18055e-015 -0 4.1246 0.487 4.1451 -1.59028e-015 0 -1.59028e-015 3.40521 -1.45401 2.7682 -0 0 1.59028e-015 5.6954 0.209991 2.1184 -1.59028e-015 0 -1.59028e-015 3.9766 -1.53999 2.3863 -0 0 1.59028e-015 2.09559 0.65999 -0.38939 0 3.18055e-015 -0 5.0395 -0.089997 2.49707 -1.59028e-015 0 -1.59028e-015 3.7921 -1.552 1.4806 -0 0 1.59028e-015 4.9141 -1.269 0.35915 -1.59028e-015 0 -1.59028e-015 3.1477 -1.685 0.84623 -0 0 1.59028e-015 -1.70688 20.075 5.0056 -31.2242 -11.9651 2.26461 -13.6458 -0.047012 -4.84902 73.7859 16.6133 37.6473 -28.3255 -0.975903 2.28883 -32.3899 -4.87748 40.4495 -22.1583 -0.530036 10.8316 3.47954 3.50966 -23.2455 -0.785995 0.111999 2.58168 -0 0 6.36111e-015 -0.3601 -0.878005 4.2331 -3.53113e-031 -6.36111e-015 -3.18055e-015 -0.9571 1.114 1.76948 -0 0 6.36111e-015 -4.1246 0.487 4.1451 -3.53113e-031 -6.36111e-015 -3.18055e-015 -3.40521 -1.45401 2.7682 -3.18055e-015 -3.18055e-015 3.18055e-015 -5.6954 0.209991 2.1184 -3.53113e-031 -6.36111e-015 -3.18055e-015 -3.9766 -1.53999 2.3863 -3.18055e-015 -3.18055e-015 3.18055e-015 -2.09559 0.65999 -0.38939 -0 0 6.36111e-015 -5.0395 -0.089997 2.49707 -3.53113e-031 -6.36111e-015 -3.18055e-015 -3.7921 -1.552 1.4806 -3.18055e-015 -3.18055e-015 3.18055e-015 -4.9141 -1.269 0.35915 -3.53113e-031 -6.36111e-015 -3.18055e-015 -3.1477 -1.685 0.84623 -3.18055e-015 -3.18055e-015 3.18055e-015 8.367 -8.2066 0.59823 56.7626 -78.9213 33.606 2.19232 -43.463 -0.493181 -168.638 28.5601 140.884 0.733257 -45.8593 -2.64513 -2.92647 -0.0374479 -1.69064 -8.367 -8.2066 0.59823 -70.5053 -55.902 -48.3487 -2.19233 -43.463 -0.493108 168.891 25.1323 -132.285 -0.733256 -45.8593 -2.64514 -2.66412 -9.37502 2.59693 
-0.021285 39.2047 -5.29156 2.93526 -18.1398 7.08342 2.22045e-016 -1.186 -1.50178 3.23935 12.8414 -0.838917 4.44089e-016 9.964 0.21338 6.94811 25.6087 -2.56938 2.66454e-015 13.134 -3.25729 6.9485 25.6071 -2.60551 1.77636e-015 21.686 -1.69049 -21.2853 -30.1667 -4.34005 0 11.838 -0.12368 3.22925 -11.2199 -7.09414 1.70688 20.075 5.0056 8.55388 -16.2769 -4.4517 13.6458 -0.047012 -4.84902 -59.7288 29.9315 -46.8544 28.3255 -0.975903 2.28883 -3.53916 -16.4777 -35.1545 22.1583 -0.530035 10.8316 -8.1928 7.94554 22.2588 0.785995 0.111999 2.58168 1.59028e-015 -3.18055e-015 1.59028e-015 0.3601 -0.878005 4.2331 1.59028e-015 0 -0 0.9571 1.114 1.76948 1.59028e-015 -3.18055e-015 1.59028e-015 4.1246 0.487 4.1451 1.59028e-015 0 -0 3.40521 -1.45401 2.7682 0 3.18055e-015 -0 5.6954 0.209991 2.1184 1.59028e-015 0 -0 3.9766 -1.53999 2.3863 0 3.18055e-015 -0 2.09559 0.65999 -0.38939 1.59028e-015 -3.18055e-015 1.59028e-015 5.0395 -0.089997 2.49707 1.59028e-015 0 -0 3.7921 -1.552 1.4806 0 3.18055e-015 -0 4.9141 -1.269 0.35915 1.59028e-015 0 -0 3.1477 -1.685 0.84623 0 3.18055e-015 -0 -1.70688 20.075 5.0056 -31.9804 -11.7546 2.06017 -13.6458 -0.047012 -4.84902 74.2659 16.8341 37.7414 -28.3255 -0.975903 2.28883 -33.6228 -4.83774 41.0006 -22.1583 -0.530036 10.8316 3.57093 3.55249 -23.2465 -0.785995 0.111999 2.58168 -0 0 3.18055e-015 -0.3601 -0.878005 4.2331 -1.59028e-014 3.18055e-015 -0 -0.9571 1.114 1.76948 -0 0 3.18055e-015 -4.1246 0.487 4.1451 -1.59028e-014 3.18055e-015 -0 -3.40521 -1.45401 2.7682 -6.36111e-015 3.18055e-015 3.18055e-015 -5.6954 0.209991 2.1184 -1.59028e-014 3.18055e-015 -0 -3.9766 -1.53999 2.3863 -6.36111e-015 3.18055e-015 3.18055e-015 -2.09559 0.65999 -0.38939 -0 0 3.18055e-015 -5.0395 -0.089997 2.49707 -1.59028e-014 3.18055e-015 -0 -3.7921 -1.552 1.4806 -6.36111e-015 3.18055e-015 3.18055e-015 -4.9141 -1.269 0.35915 -1.59028e-014 3.18055e-015 -0 -3.1477 -1.685 0.84623 -6.36111e-015 3.18055e-015 3.18055e-015 8.367 -8.2066 0.59823 56.9775 -79.0417 33.651 2.19232 -43.463 -0.493181 -168.644 28.4962 140.843 0.733257 -45.8593 -2.64513 -3.03496 -0.173964 -1.69162 -8.367 -8.2066 0.59823 -70.6516 -56.0709 -48.7367 -2.19233 -43.463 -0.493108 168.929 25.0624 -132.42 -0.733256 -45.8593 -2.64514 -2.63091 -9.28567 2.58008 
-0.0536018 39.0869 -5.35173 2.98248 -18.1789 7.50383 0 -1.186 -1.50178 3.22198 12.853 -0.854887 -4.44089e-016 9.964 0.21338 6.9166 25.6312 -2.59934 0 13.134 -3.25729 6.91701 25.6297 -2.63552 0 21.686 -1.69049 -21.2871 -29.6366 -4.44034 0 11.838 -0.12368 3.5426 -11.5151 -7.1941 1.70688 20.075 5.0056 9.30104 -16.0787 -4.22115 13.6458 -0.047012 -4.84902 -59.7233 29.9798 -47.0548 28.3255 -0.975903 2.28883 -3.95016 -16.5417 -35.8637 22.1583 -0.530035 10.8316 -8.18304 8.00759 23.3575 0.785995 0.111999 2.58168 1.59028e-015 6.36111e-015 -0 0.3601 -0.878005 4.2331 0 6.36111e-015 -0 0.9571 1.114 1.76948 1.59028e-015 6.36111e-015 -0 4.1246 0.487 4.1451 0 6.36111e-015 -0 3.40521 -1.45401 2.7682 8.82781e-032 3.18055e-015 -1.59028e-015 5.6954 0.209991 2.1184 0 6.36111e-015 -0 3.9766 -1.53999 2.3863 8.82781e-032 3.18055e-015 -1.59028e-015 2.09559 0.65999 -0.38939 1.59028e-015 6.36111e-015 -0 5.0395 -0.089997 2.49707 0 6.36111e-015 -0 3.7921 -1.552 1.4806 8.82781e-032 3.18055e-015 -1.59028e-015 4.9141 -1.269 0.35915 0 6.36111e-015 -0 3.1477 -1.685 0.84623 8.82781e-032 3.18055e-015 -1.59028e-015 -1.70688 20.075 5.0056 -32.379 -11.4775 1.76236 -13.6458 -0.047012 -4.84902 74.8798 16.9236 37.7403 -28.3255 -0.975903 2.28883 -34.8204 -4.92685 41.6867 -22.1583 -0.530036 10.8316 3.73981 3.63375 -23.4129 -0.785995 0.111999 2.58168 -6.36111e-015 0 3.18055e-015 -0.3601 -0.878005 4.2331 3.18055e-015 -3.18055e-015 -3.18055e-015 -0.9571 1.114 1.76948 -6.36111e-015 0 3.18055e-015 -4.1246 0.487 4.1451 3.18055e-015 -3.18055e-015 -3.18055e-015 -3.40521 -1.45401 2.7682 6.36111e-015 0 -0 -5.6954 0.209991 2.1184 3.18055e-015 -3.18055e-015 -3.18055e-015 -3.9766 -1.53999 2.3863 6.36111e-015 0 -0 -2.09559 0.65999 -0.38939 -6.36111e-015 0 3.18055e-015 -5.0395 -0.089997 2.49707 3.18055e-015 -3.18055e-015 -3.18055e-015 -3.7921 -1.552 1.4806 6.36111e-015 0 -0 -4.9141 -1.269 0.35915 3.18055e-015 -3.18055e-015 -3.18055e-015 -3.1477 -1.685 0.84623 6.36111e-015 0 -0 8.367 -8.2066 0.59823 56.9661 -79.5789 33.6492 2.19232 -43.463 -0.493181 -168.669 28.4222 140.923 0.733257 -45.8593 -2.64513 -3.17903 -0.0654062 -1.65309 -8.367 -8.2066 0.59823 -70.8871 -55.6946 -48.8699 -2.19233 -43.463 -0.493108 168.93 24.9386 -132.287 -0.733256 -45.8593 -2.64514 -2.69256 -9.26479 2.60767 
-0.115743 38.9757 -5.4657 3.12803 -18.5673 7.4723 0 -1.186 -1.50178 3.19107 12.9992 -0.85989 0 9.964 0.21338 6.86296 25.9238 -2.61499 -8.88178e-016 13.134 -3.25729 6.86349 25.9221 -2.65163 0 21.686 -1.69049 -21.0634 -29.2665 -4.29719 0 11.838 -0.12368 3.47408 -11.9929 -7.11708 1.70688 20.075 5.0056 10.2541 -16.2727 -3.62009 13.6458 -0.047012 -4.84902 -60.5536 30.1743 -47.0636 28.3255 -0.975903 2.28883 -4.0868 -16.4911 -36.5867 22.1583 -0.530035 10.8316 -8.32766 8.14929 24.5739 0.785995 0.111999 2.58168 -3.18055e-015 0 1.59028e-015 0.3601 -0.878005 4.2331 -1.59028e-015 0 -0 0.9571 1.114 1.76948 -3.18055e-015 0 1.59028e-015 4.1246 0.487 4.1451 -1.59028e-015 0 -0 3.40521 -1.45401 2.7682 0 0 -1.59028e-015 5.6954 0.209991 2.1184 -1.59028e-015 0 -0 3.9766 -1.53999 2.3863 0 0 -1.59028e-015 2.09559 0.65999 -0.38939 -3.18055e-015 0 1.59028e-015 5.0395 -0.089997 2.49707 -1.59028e-015 0 -0 3.7921 -1.552 1.4806 0 0 -1.59028e-015 4.9141 -1.269 0.35915 -1.59028e-015 0 -0 3.1477 -1.685 0.84623 0 0 -1.59028e-015 -1.70688 20.075 5.0056 -33.0665 -11.4762 1.34639 -13.6458 -0.047012 -4.84902 75.5223 17.2291 37.8324 -28.3255 -0.975903 2.28883 -35.7817 -5.04312 42.2655 -22.1583 -0.530036 10.8316 3.62506 3.58279 -23.6383 -0.785995 0.111999 2.58168 -0 0 3.18055e-015 -0.3601 -0.878005 4.2331 -6.36111e-015 3.18055e-015 -0 -0.9571 1.114 1.76948 -0 0 3.18055e-015 -4.1246 0.487 4.1451 -6.36111e-015 3.18055e-015 -0 -3.40521 -1.45401 2.7682 -3.18055e-015 3.18055e-015 -0 -5.6954 0.209991 2.1184 -6.36111e-015 3.18055e-015 -0 -3.9766 -1.53999 2.3863 -3.18055e-015 3.18055e-015 -0 -2.09559 0.65999 -0.38939 -0 0 3.18055e-015 -5.0395 -0.089997 2.49707 -6.36111e-015 3.18055e-015 -0 -3.7921 -1.552 1.4806 -3.18055e-015 3.18055e-015 -0 -4.9141 -1.269 0.35915 -6.36111e-015 3.18055e-015 -0 -3.1477 -1.685 0.84623 -3.18055e-015 3.18055e-015 -0 8.367 -8.2066 0.59823 55.6266 -79.2875 32.2855 2.19232 -43.463 -0.493181 -168.666 28.3969 140.856 0.733257 -45.8593 -2.64513 -3.12016 -0.209571 -1.68855 -8.367 -8.2066 0.59823 -70.5682 -55.8101 -48.4414 -2.19233 -43.463 -0.493108 168.967 24.8428 -132.39 -0.733256 -45.8593 -2.64514 -2.65852 -9.23554 2.60021 
